HIERARCHY
ROOT SpineBase
{
  OFFSET 0.000000 0.000000 0.000000
  CHANNELS 6 Xposition Yposition Zposition Zrotation Xrotation Yrotation
  JOINT SpineMid
  {
    OFFSET 0.000000 29.224954 0.000000
    CHANNELS 3 Zrotation Xrotation Yrotation
    JOINT SpineShoulder
    {
      OFFSET -0.126390 21.610481 -0.610482
      CHANNELS 3 Zrotation Xrotation Yrotation
      JOINT Neck
      {
        OFFSET -0.071807 7.129070 -0.486144
        CHANNELS 3 Zrotation Xrotation Yrotation
        JOINT Head
        {
          OFFSET -1.103492 13.212887 0.592660
          CHANNELS 3 Zrotation Xrotation Yrotation
          End Site
          {
            OFFSET 0 0 0
          }
        }
      }
      JOINT ShoulderLeft
      {
        OFFSET -16.353889 -2.719865 3.911914
        CHANNELS 3 Zrotation Xrotation Yrotation
        JOINT ElbowLeft
        {
          OFFSET -3.842387 -25.029384 1.938533
          CHANNELS 3 Zrotation Xrotation Yrotation
          JOINT WristLeft
          {
            OFFSET -3.057768 -21.696822 -4.707584
            CHANNELS 3 Zrotation Xrotation Yrotation
            JOINT HandLeft
            {
              OFFSET 1.572137 -6.266456 -2.336651
              CHANNELS 3 Zrotation Xrotation Yrotation
              JOINT HandTipLeft
              {
                OFFSET 0.023096 -6.450418 -1.779669
                CHANNELS 3 Zrotation Xrotation Yrotation
                End Site
                {
                  OFFSET 0 0 0
                }
              }
              JOINT ThumbLeft
              {
                OFFSET 3.252274 1.758515 -2.636088
                CHANNELS 3 Zrotation Xrotation Yrotation
                End Site
                {
                  OFFSET 0 0 0
                }
              }
            }
          }
        }
      }
      JOINT ShoulderRight
      {
        OFFSET 15.222460 -3.326088 -6.163412
        CHANNELS 3 Zrotation Xrotation Yrotation
        JOINT ElbowRight
        {
          OFFSET 5.575922 -24.952525 -2.368445
          CHANNELS 3 Zrotation Xrotation Yrotation
          JOINT WristRight
          {
            OFFSET -0.243867 -20.686865 -3.871856
            CHANNELS 3 Zrotation Xrotation Yrotation
            JOINT HandRight
            {
              OFFSET -1.906876 -7.902836 -0.676723
              CHANNELS 3 Zrotation Xrotation Yrotation
              JOINT HandTipRight
              {
                OFFSET -0.305449 -6.409255 -1.759262
                CHANNELS 3 Zrotation Xrotation Yrotation
                End Site
                {
                  OFFSET 0 0 0
                }
              }
              JOINT ThumbRight
              {
                OFFSET -3.420097 0.702409 -1.335424
                CHANNELS 3 Zrotation Xrotation Yrotation
                End Site
                {
                  OFFSET 0 0 0
                }
              }
            }
          }
        }
      }
    }
  }
  JOINT HipLeft
  {
    OFFSET -5.950123 0.367063 -1.627480
    CHANNELS 3 Zrotation Xrotation Yrotation
    JOINT KneeLeft
    {
      OFFSET -9.146746 -30.259407 5.441514
      CHANNELS 3 Zrotation Xrotation Yrotation
      JOINT AnkleLeft
      {
        OFFSET -3.045154 -36.753173 8.498824
        CHANNELS 3 Zrotation Xrotation Yrotation
        JOINT FootLeft
        {
          OFFSET -2.612570 -4.220505 -12.456248
          CHANNELS 3 Zrotation Xrotation Yrotation
          End Site
          {
            OFFSET 0 0 0
          }
        }
      }
    }
  }
  JOINT HipRight
  {
    OFFSET 5.550059 0.964284 -4.936692
    CHANNELS 3 Zrotation Xrotation Yrotation
    JOINT KneeRight
    {
      OFFSET 4.575835 -32.643167 5.170419
      CHANNELS 3 Zrotation Xrotation Yrotation
      JOINT AnkleRight
      {
        OFFSET 0.377343 -33.600202 8.640882
        CHANNELS 3 Zrotation Xrotation Yrotation
        JOINT FootRight
        {
          OFFSET -3.489825 -3.514726 -13.559626
          CHANNELS 3 Zrotation Xrotation Yrotation
          End Site
          {
            OFFSET 0 0 0
          }
        }
      }
    }
  }
}
MOTION
Frames: 9
Frame Time: 0.033333
18.914844 72.657978 366.274165 0.817968 0.653403 12.968692 -0.943767 -0.453102 -12.977088 -0.000000 0.000000 0.000000 3.001828 -8.159410 -0.603725 0.000000 0.000000 0.000000 -66.450396 15.114499 1.660742 -172.051478 8.146703 -40.878029 -4.252841 -23.752204 19.876099 28.537470 50.192282 -89.751647 0.000000 0.000000 0.000000 0.000000 0.000000 0.000000 0.707073 3.556529 0.702885 -0.352226 -6.004969 -0.766582 0.433545 8.640103 -1.586912 5.377903 -5.709541 0.476447 0.000000 0.000000 0.000000 0.000000 0.000000 0.000000 -0.943767 -0.453102 -12.977088 -0.000000 0.000000 0.000000 0.710691 2.887203 -3.644651 0.000000 0.000000 0.000000 2.566495 0.306769 -12.244696 -2.241155 -0.929806 -0.479307 3.007418 -17.360624 3.680770 0.000000 0.000000 0.000000
18.928387 72.629856 366.287288 0.846092 0.664701 13.117074 -0.267109 -0.046117 -13.102638 -0.596604 -0.558953 -0.023031 3.192895 -7.758953 -0.576074 0.000000 0.000000 0.000000 -67.259215 16.374586 2.320514 -170.796378 9.087008 -40.486895 -4.851335 -22.947943 18.870316 27.701614 46.509845 -84.965366 0.000000 0.000000 0.000000 0.000000 0.000000 0.000000 0.575438 3.924938 0.799566 -0.501044 -6.685288 -0.828074 0.892016 9.644518 -1.858242 5.645807 -5.656631 0.573802 0.000000 0.000000 0.000000 0.000000 0.000000 0.000000 -0.974893 -0.455271 -13.125855 -0.000000 0.000000 0.000000 0.582356 3.522633 -3.601144 0.000000 0.000000 0.000000 2.710817 0.530920 -12.344294 -2.117558 -1.384662 -0.470447 4.079268 -22.431161 10.010505 0.000000 0.000000 0.000000
18.922165 72.603352 366.308205 0.854632 0.661034 13.324122 -0.237551 -0.054984 -13.308413 -0.636341 -0.552545 -0.024274 3.431478 -7.226273 -0.541707 0.000000 0.000000 0.000000 -69.152734 18.136185 3.365351 -168.694798 10.498989 -39.765444 -3.409919 -23.106363 19.490903 27.987041 43.332235 -82.914714 0.000000 0.000000 0.000000 0.000000 0.000000 0.000000 0.283678 4.335179 0.927677 -0.466976 -7.533677 -0.914508 0.926247 10.858327 -2.071364 5.529273 -5.346502 0.779550 0.000000 0.000000 0.000000 0.000000 0.000000 0.000000 -0.983996 -0.446209 -13.332884 -0.000000 0.000000 0.000000 0.502217 1.550976 -2.360916 0.000000 0.000000 0.000000 2.537066 0.683819 -12.571538 -1.883813 -1.658874 -0.442248 4.677928 -24.258789 14.115750 0.000000 0.000000 0.000000
18.901920 72.582168 366.331110 0.858341 0.665424 13.572039 -0.203080 -0.063299 -13.555032 -0.675994 -0.555969 -0.025625 3.599663 -6.686233 -0.510211 0.000000 0.000000 0.000000 -71.541596 20.031697 4.628318 -166.345884 12.069145 -38.819426 -2.967517 -23.376864 19.648415 29.137080 38.954044 -79.004795 0.000000 0.000000 0.000000 0.000000 0.000000 0.000000 0.106986 4.412846 0.968543 -0.314322 -7.483853 -0.942142 0.918578 10.894913 -2.107429 5.725753 -5.174137 0.774984 0.000000 0.000000 0.000000 0.000000 0.000000 0.000000 -0.990553 -0.445342 -13.580873 -0.000000 0.000000 0.000000 0.423655 1.524684 -2.121170 0.000000 0.000000 0.000000 2.237114 0.836877 -12.862011 -1.388697 -1.939300 -0.349558 4.931252 -25.172161 15.787451 0.000000 0.000000 0.000000
18.886567 72.559802 366.362906 0.882906 0.673126 13.867980 -0.185010 -0.073961 -13.849714 -0.721238 -0.556677 -0.027132 3.620827 -6.247481 -0.486985 0.000000 0.000000 0.000000 -74.293830 22.072440 6.148283 -163.776273 13.998425 -38.205934 -0.462908 -25.545143 22.850933 31.813225 42.494302 -89.128315 0.000000 0.000000 0.000000 0.000000 0.000000 0.000000 -0.064082 4.333008 0.973829 -0.126115 -6.923767 -0.939010 0.398244 10.471789 -2.003953 5.180668 -3.364619 0.761868 0.000000 0.000000 0.000000 0.000000 0.000000 0.000000 -0.457816 0.191632 -14.032179 -1.182355 -0.965816 -0.023509 1.129074 1.707042 -1.704005 0.000000 0.000000 0.000000 2.204093 1.260132 -13.129045 -1.225304 -2.803114 -0.369876 10.436259 -35.178212 20.418447 0.000000 0.000000 0.000000
18.860630 72.544397 366.403486 0.901935 0.680010 14.176781 -0.171280 -0.082241 -14.157540 -0.756246 -0.557997 -0.028307 3.494821 -5.990821 -0.474565 0.000000 0.000000 0.000000 -77.273109 24.010176 7.800883 -161.256650 15.827123 -37.276982 -0.120528 -26.698757 23.842044 34.756212 44.776500 -96.365038 0.000000 0.000000 0.000000 0.000000 0.000000 0.000000 0.227070 4.198951 0.905276 -0.578905 -6.232869 -0.879096 0.403773 10.164256 -2.055182 4.242100 -1.615008 0.849016 0.000000 0.000000 0.000000 0.000000 0.000000 0.000000 -0.301505 0.275862 -14.352156 -1.400817 -1.121104 -0.030964 1.128894 1.702437 -1.472386 0.000000 0.000000 0.000000 2.117440 1.433153 -13.437821 -1.130589 -3.254955 -0.376318 9.878425 -34.680702 16.100970 0.000000 0.000000 0.000000
18.820980 72.541166 366.443747 0.891076 0.677988 14.436250 -0.148823 -0.083969 -14.416472 -0.768124 -0.559231 -0.028716 3.325137 -5.841732 -0.467721 0.000000 0.000000 0.000000 -79.965940 25.557279 9.305061 -159.196875 17.270857 -36.157219 -0.114674 -27.464220 24.122430 36.318725 44.353447 -97.814892 0.000000 0.000000 0.000000 0.000000 0.000000 0.000000 0.298288 4.089073 0.871698 -0.700046 -5.714836 -0.846352 -0.127081 9.980085 -2.001726 3.959247 -2.960677 1.162099 0.000000 0.000000 0.000000 0.000000 0.000000 0.000000 -0.106294 0.379319 -14.628897 -1.542827 -1.359066 -0.009270 1.071393 1.763249 -1.324658 0.000000 0.000000 0.000000 2.459428 1.650459 -13.623566 -1.731880 -3.933537 -0.568795 10.346106 -35.905187 9.897019 0.000000 0.000000 0.000000
18.766979 72.549437 366.497992 0.863032 0.667757 14.651847 -0.127129 -0.085512 -14.631944 -0.761900 -0.552540 -0.028426 3.136861 -5.718238 -0.461975 0.000000 0.000000 0.000000 -82.169718 26.569543 10.457347 -157.868913 18.258941 -34.929574 0.164047 -27.048777 23.074727 35.394833 43.956803 -96.263143 0.000000 0.000000 0.000000 0.000000 0.000000 0.000000 0.443278 3.866076 0.803926 -0.807489 -4.937678 -0.791836 -0.725930 9.135867 -1.822944 2.885743 -2.674637 1.351049 0.000000 0.000000 0.000000 0.000000 0.000000 0.000000 0.073873 0.434084 -14.847592 -1.587383 -1.548910 0.020186 0.958047 1.839854 -1.259127 0.000000 0.000000 0.000000 3.719023 2.117654 -13.595003 -3.084393 -4.983285 -0.965758 6.648898 -26.306837 10.100686 0.000000 0.000000 0.000000
18.709890 72.575153 366.551473 0.828489 0.654933 14.846528 -0.103133 -0.082694 -14.826620 -0.750218 -0.548254 -0.027987 2.847423 -5.707352 -0.462904 0.000000 0.000000 0.000000 -83.914318 27.405277 11.444841 -156.930323 18.871481 -33.292809 0.587020 -26.710993 22.013074 33.579655 42.951347 -92.562285 0.000000 0.000000 0.000000 0.000000 0.000000 0.000000 0.512825 3.577993 0.732195 -0.559562 -3.570991 -0.765656 -1.251076 7.157908 -1.531665 1.994101 -1.626316 1.292664 0.000000 0.000000 0.000000 0.000000 0.000000 0.000000 0.234570 0.500595 -15.052270 -0.922855 -1.202093 0.186930 0.205242 3.303338 -2.450798 0.000000 0.000000 0.000000 4.308695 2.306111 -13.684376 -3.541242 -5.262049 -1.097674 2.961916 -16.444314 7.518226 0.000000 0.000000 0.000000
